<svg id="Capa_1" enable-background="new 0 0 512 512" height="512" viewBox="0 0 512 512" width="512" xmlns="http://www.w3.org/2000/svg"><g><g><g><circle cx="237.465" cy="221.528" fill="#b1e4f9" r="189.04"/></g><g><path d="m342.013 64.019c19.916 29.945 31.531 65.888 31.531 104.548 0 104.404-84.636 189.04-189.04 189.04-38.66 0-74.603-11.614-104.548-31.531 33.869 50.924 91.765 84.491 157.509 84.491 104.404 0 189.04-84.636 189.04-189.04 0-65.743-33.568-123.639-84.492-157.508z" fill="#75cef9"/></g><g><path d="m471.435 466.202-22.769 22.769c-1.172 1.172-3.071 1.172-4.243 0l-58.49-58.49 27.012-27.012 58.49 58.49c1.172 1.172 1.172 3.071 0 4.243z" fill="#d5c6e4"/></g><g><path d="m471.435 461.959-58.49-58.491-9.149 9.149 49.392 49.392c1.143 1.143 1.143 2.997 0 4.141l-15.792 15.792 7.028 7.028c1.172 1.172 3.071 1.172 4.243 0l22.769-22.769c1.171-1.171 1.171-3.07-.001-4.242z" fill="#beb9dd"/></g><g><path d="m287.845 310.146 79.196 191.52c1.633 3.949 7.193 4.04 8.955.147l30.596-67.611c2.346-5.184 6.499-9.337 11.682-11.682l67.611-30.596c3.893-1.762 3.802-7.322-.147-8.955l-191.52-79.196c-4.014-1.661-8.033 2.358-6.373 6.373z" fill="#efecef"/></g><g><path d="m485.738 382.968-23.649-9.78-64.126 29.019c-5.184 2.346-9.337 6.498-11.682 11.682l-29.019 64.126 9.779 23.649c1.633 3.949 7.193 4.04 8.955.147l30.596-67.611c2.346-5.184 6.498-9.337 11.682-11.682l67.611-30.596c3.893-1.76 3.802-7.321-.147-8.954z" fill="#dddaec"/></g><g><path d="m442.362 16.632c-18.052-18.051-47.86-4.899-57.655-.578-17.063 7.527-37.728 19.961-61.496 36.974 12.57 6.408 24.324 14.183 35.074 23.126 28.363-19.199 44.655-26.029 52.983-28.433-2.724 9.418-11.106 29.018-36.687 64.845-28.33 39.677-68.902 86.498-114.24 131.837-45.34 45.339-92.16 85.911-131.838 114.241-35.826 25.581-55.426 33.962-64.843 36.686 2.404-8.326 9.226-24.604 28.429-52.98-8.946-10.75-16.72-22.508-23.131-35.078-17.381 24.285-29.964 45.31-37.429 62.553-4.151 9.59-16.786 38.772 1.04 56.599 6.13 6.129 14.158 9.197 24.004 9.197 7.586-.001 16.253-1.822 25.957-5.469 15.432-5.798 34.508-16.366 56.699-31.411 44.011-29.837 96.826-74.846 148.716-126.736 51.889-51.89 96.898-104.704 126.735-148.715 15.045-22.191 25.612-41.267 31.411-56.699 8.377-22.297 7.123-39.106-3.729-49.959z" fill="#407093"/></g><g><g><path d="m447.823 24.067c-.861 5.19-2.41 10.781-4.661 16.773-5.798 15.432-16.366 34.508-31.411 56.699-29.837 44.011-74.846 96.825-126.735 148.715-51.89 51.89-104.705 96.899-148.716 126.736-22.191 15.045-41.267 25.612-56.699 31.411-9.704 3.646-18.371 5.468-25.957 5.469-9.846 0-17.874-3.068-24.004-9.197-2.35-2.351-4.159-4.902-5.539-7.577-1.872 11.226-.987 23.875 8.467 33.33 6.13 6.129 14.158 9.197 24.004 9.197 7.586-.001 16.253-1.822 25.957-5.469 15.432-5.798 34.508-16.366 56.699-31.411 44.011-29.837 96.826-74.846 148.716-126.736 51.889-51.89 96.898-104.704 126.735-148.715 15.045-22.191 25.612-41.267 31.411-56.699 6.659-17.722 7.226-31.973 1.733-42.526z" fill="#365e7d"/></g></g></g><path d="m488.535 376.205-30.475-12.602c-3.736-1.547-8.017.232-9.561 3.967-1.545 3.736.231 8.016 3.967 9.561l25.267 10.448-62.477 28.272c-6.807 3.081-12.252 8.527-15.333 15.334l-28.272 62.475-74.796-180.877 126.851 52.455c3.737 1.544 8.017-.233 9.561-3.967 1.545-3.736-.231-8.016-3.967-9.561l-33.603-13.895c24.946-33.815 38.103-73.815 38.126-116.177 0-.008.001-.015.001-.022 0-.005-.001-.01-.001-.015 0-.024.001-.049.001-.073 0-29.821-6.522-58.43-19.355-85.071 2.155-3.056 4.249-6.078 6.269-9.058 15.367-22.666 26.202-42.258 32.204-58.232 9.479-25.227 7.661-44.645-5.404-57.711-21.596-21.594-54.854-6.92-65.784-2.099-16.612 7.328-36.526 19.163-59.228 35.184-26.222-12.606-55.214-19.372-85.059-19.372-108.273 0-196.359 88.087-196.359 196.36 0 29.844 6.766 58.834 19.37 85.055-8.294 11.755-15.529 22.849-21.515 33.01-2.051 3.483-.891 7.97 2.592 10.021 3.423 2.034 7.957.922 10.021-2.591 4.75-8.066 10.327-16.759 16.635-25.94 4.43 7.527 9.372 14.77 14.801 21.68-17.205 26.044-23.857 41.792-26.382 50.536-.74 2.562-.028 5.323 1.857 7.208 1.888 1.893 4.676 2.591 7.208 1.855 10.873-3.145 31.333-12.249 67.062-37.761 10.893-7.778 22.32-16.474 34.1-25.924.025-.019.048-.039.073-.058 31.448-25.234 65.421-55.874 98.587-89.04 45.616-45.616 86.465-92.764 115.021-132.759 25.513-35.732 34.617-56.192 37.761-67.064 1.722-5.314-3.746-10.786-9.06-9.066-8.742 2.522-24.49 9.171-50.54 26.384-6.907-5.427-14.147-10.367-21.671-14.796 19.371-13.315 36.373-23.236 50.634-29.526 8.66-3.821 35.017-15.449 49.523-.944 8.639 8.64 9.33 22.843 2.052 42.212-5.596 14.893-15.897 33.454-30.617 55.165-29.584 43.638-74.279 96.073-125.852 147.647-51.571 51.571-104.007 96.268-147.648 125.853-21.711 14.72-40.272 25.021-55.166 30.618-8.829 3.318-16.696 5-23.382 5.001-7.923 0-14.082-2.307-18.828-7.053-14.308-14.309-3.162-40.055.501-48.515 1.606-3.71-.099-8.019-3.809-9.625-3.709-1.608-8.019.099-9.625 3.809-4.64 10.718-18.762 43.337 2.581 64.682 15.188 15.133 37.244 13.153 57.711 5.404 15.974-6.001 35.565-16.837 58.231-32.204 2.98-2.02 6.003-4.115 9.06-6.27 26.639 12.833 55.243 19.357 85.07 19.357 27.905 0 54.788-5.715 79.989-16.985l42.823 103.559c1.859 4.498 6.206 7.457 11.073 7.537.068.002.135.002.203.002 4.787 0 9.133-2.796 11.112-7.17l20.956-46.31 35.677 35.676c3.813 3.977 10.678 3.977 14.493.002l22.87-22.87c3.976-3.813 3.976-10.68.001-14.493l-36.284-36.284 48.526-21.959c4.434-2.007 7.247-6.449 7.167-11.316-.08-4.869-3.038-9.215-7.535-11.074zm-209.089-161.88c-.187-.014-.374-.029-.564-.029h-34.134v-173.806c19.386 3.588 34.146 20.901 43.471 35.695 14.919 23.671 25.943 56.994 31.178 94.121-12.492 14.46-25.893 29.231-39.951 44.019zm-86.81-168.917c-4.107 3.974-8.079 8.509-11.887 13.604-15.343 20.53-27.417 49.139-34.917 82.736-.881 3.945 1.604 7.857 5.549 8.739 3.948.872 7.857-1.605 8.738-5.55 7.053-31.594 18.241-58.275 32.356-77.161 8.328-11.142 21.238-24.151 37.635-27.27v173.79h-78.02c.253-13.396 1.201-26.662 2.843-39.532.511-4.01-2.325-7.676-6.334-8.187-4.016-.518-7.675 2.324-8.187 6.334-1.719 13.479-2.708 27.369-2.963 41.384h-81.548c3.209-81.538 60.39-149.444 136.735-168.887zm-26.566 275.056c-8.562-27.452-13.36-58.742-13.986-91.529h78.025v34.72c-21.695 20.617-43.354 39.823-64.039 56.809zm-73.17 33.926c3.719 4.044 7.62 7.946 11.698 11.696-11.574 7.481-20.684 12.565-27.689 15.999 3.422-6.986 8.493-16.099 15.991-27.695zm24.236 3.297c-6.977-6.17-13.418-12.814-19.296-19.864-.03-.039-.062-.076-.094-.114-25.405-30.527-40.208-68.641-41.835-108.774h81.534c.672 36.447 6.312 71.235 16.422 101.38-10.206 8.096-22.612 17.072-36.731 27.372zm127.612-108.156v-20.595h20.598c-3.365 3.436-17.12 17.189-20.598 20.595zm87.118-93.914c-6.112-34.076-17.009-64.621-31.263-87.237-5.688-9.025-11.787-16.685-18.217-22.941 26.086 6.645 50.409 19.03 71.213 36.331.061.051.122.103.185.152 7.042 5.872 13.677 12.307 19.84 19.276-1.589 2.296-3.247 4.66-4.999 7.114-10.639 14.901-23.028 30.824-36.759 47.305zm66.158-94.651c-3.434 7.007-8.519 16.118-16.002 27.694-3.75-4.079-7.652-7.98-11.697-11.699 11.6-7.501 20.713-12.573 27.699-15.995zm-70.864 248.507c6.121-24.467 9.746-51.021 10.231-78.594.591-.648 1.185-1.296 1.773-1.943h79.872c-1.483 37.699-14.295 73.14-37.308 103.102zm91.869-95.176h-66.758c19.583-22.221 37.248-43.886 52.329-64.21 8.736 20.361 13.571 41.892 14.429 64.21zm-125.909 62.886c9.907-9.907 19.565-19.85 28.919-29.761-1.34 19.688-4.211 38.573-8.566 56.392l-16.457-6.805c-4.573-1.891-9.788-.852-13.288 2.647-3.499 3.5-4.538 8.715-2.647 13.288l15.803 38.215c-14.257 29.41-32.907 47.657-52.135 51.372v-79.188c16.025-14.568 32.245-30.034 48.371-46.16zm-63.011 125.369c-17.662-3.301-31.477-17.986-40.849-31.79 13.272-10.582 26.951-22.072 40.849-34.318zm-64.09-13.885c3.853-2.859 7.752-5.806 11.697-8.847 4.723 6.86 9.704 12.821 14.901 17.866-9.058-2.3-17.935-5.302-26.598-9.019zm116.297 9.027c7.866-7.617 15.2-17.316 21.843-28.943l7.697 18.614c-9.596 4.316-19.455 7.767-29.54 10.329zm180.889 66.387-16.661 16.66-36.473-36.473 3.19-7.049c1.614-3.565 4.466-6.418 8.032-8.031l4.832-2.187z"/></g></svg>